<mxfile host="www.draw.io" modified="2019-11-13T00:52:03.675Z" agent="Mozilla/5.0 (Windows NT 10.0; Win64; x64; rv:70.0) Gecko/20100101 Firefox/70.0" etag="RcwvKIULPaHJ581ElGCR" version="12.2.3" type="github" pages="2">
  <diagram id="BL0MUWw8E81kWEHnsYQB" name="Page-1">
    <mxGraphModel dx="971" dy="521" grid="1" gridSize="10" guides="1" tooltips="1" connect="1" arrows="1" fold="1" page="1" pageScale="1" pageWidth="827" pageHeight="1169" math="0" shadow="0">
      <root>
        <mxCell id="0"/>
        <mxCell id="1" parent="0"/>
        <mxCell id="-JAkauWewv_Lo-s79EUZ-1" value="资源代码管理器" style="rounded=0;whiteSpace=wrap;html=1;" parent="1" vertex="1">
          <mxGeometry x="60" y="170" width="20" height="170" as="geometry"/>
        </mxCell>
        <mxCell id="-JAkauWewv_Lo-s79EUZ-2" value="IL Complier" style="rounded=0;whiteSpace=wrap;html=1;" parent="1" vertex="1">
          <mxGeometry x="140" y="170" width="120" height="20" as="geometry"/>
        </mxCell>
        <mxCell id="-JAkauWewv_Lo-s79EUZ-3" value="ST Complier" style="rounded=0;whiteSpace=wrap;html=1;" parent="1" vertex="1">
          <mxGeometry x="140" y="200" width="120" height="20" as="geometry"/>
        </mxCell>
        <mxCell id="-JAkauWewv_Lo-s79EUZ-4" value="LD Complier" style="rounded=0;whiteSpace=wrap;html=1;" parent="1" vertex="1">
          <mxGeometry x="140" y="230" width="120" height="20" as="geometry"/>
        </mxCell>
        <mxCell id="-JAkauWewv_Lo-s79EUZ-5" value="FBD Complier" style="rounded=0;whiteSpace=wrap;html=1;" parent="1" vertex="1">
          <mxGeometry x="140" y="260" width="120" height="20" as="geometry"/>
        </mxCell>
        <mxCell id="-JAkauWewv_Lo-s79EUZ-6" value="SFC Complier" style="rounded=0;whiteSpace=wrap;html=1;" parent="1" vertex="1">
          <mxGeometry x="140" y="290" width="120" height="20" as="geometry"/>
        </mxCell>
        <mxCell id="-JAkauWewv_Lo-s79EUZ-7" value="MC Complier" style="rounded=0;whiteSpace=wrap;html=1;" parent="1" vertex="1">
          <mxGeometry x="140" y="320" width="120" height="20" as="geometry"/>
        </mxCell>
        <mxCell id="-JAkauWewv_Lo-s79EUZ-8" value="" style="endArrow=classicThin;html=1;entryX=0;entryY=0.5;entryDx=0;entryDy=0;endFill=1;" parent="1" target="-JAkauWewv_Lo-s79EUZ-4" edge="1">
          <mxGeometry width="50" height="50" relative="1" as="geometry">
            <mxPoint x="82" y="240" as="sourcePoint"/>
            <mxPoint x="100" y="239" as="targetPoint"/>
          </mxGeometry>
        </mxCell>
        <mxCell id="-JAkauWewv_Lo-s79EUZ-10" value="" style="endArrow=classic;html=1;entryX=-0.023;entryY=0.52;entryDx=0;entryDy=0;entryPerimeter=0;" parent="1" target="-JAkauWewv_Lo-s79EUZ-7" edge="1">
          <mxGeometry width="50" height="50" relative="1" as="geometry">
            <mxPoint x="100" y="240" as="sourcePoint"/>
            <mxPoint x="110" y="360" as="targetPoint"/>
            <Array as="points">
              <mxPoint x="100" y="330"/>
            </Array>
          </mxGeometry>
        </mxCell>
        <mxCell id="-JAkauWewv_Lo-s79EUZ-11" value="" style="endArrow=classic;html=1;entryX=-0.007;entryY=0.64;entryDx=0;entryDy=0;entryPerimeter=0;" parent="1" target="-JAkauWewv_Lo-s79EUZ-6" edge="1">
          <mxGeometry width="50" height="50" relative="1" as="geometry">
            <mxPoint x="100" y="240" as="sourcePoint"/>
            <mxPoint x="110" y="360" as="targetPoint"/>
            <Array as="points">
              <mxPoint x="100" y="303"/>
            </Array>
          </mxGeometry>
        </mxCell>
        <mxCell id="-JAkauWewv_Lo-s79EUZ-12" value="" style="endArrow=classic;html=1;entryX=0;entryY=0.5;entryDx=0;entryDy=0;" parent="1" target="-JAkauWewv_Lo-s79EUZ-5" edge="1">
          <mxGeometry width="50" height="50" relative="1" as="geometry">
            <mxPoint x="100" y="240" as="sourcePoint"/>
            <mxPoint x="110" y="360" as="targetPoint"/>
            <Array as="points">
              <mxPoint x="100" y="270"/>
            </Array>
          </mxGeometry>
        </mxCell>
        <mxCell id="-JAkauWewv_Lo-s79EUZ-13" value="" style="endArrow=classic;html=1;entryX=0;entryY=0.5;entryDx=0;entryDy=0;" parent="1" target="-JAkauWewv_Lo-s79EUZ-2" edge="1">
          <mxGeometry width="50" height="50" relative="1" as="geometry">
            <mxPoint x="100" y="240" as="sourcePoint"/>
            <mxPoint x="110" y="360" as="targetPoint"/>
            <Array as="points">
              <mxPoint x="100" y="180"/>
            </Array>
          </mxGeometry>
        </mxCell>
        <mxCell id="-JAkauWewv_Lo-s79EUZ-14" value="" style="endArrow=classic;html=1;entryX=0;entryY=0.5;entryDx=0;entryDy=0;" parent="1" target="-JAkauWewv_Lo-s79EUZ-3" edge="1">
          <mxGeometry width="50" height="50" relative="1" as="geometry">
            <mxPoint x="100" y="240" as="sourcePoint"/>
            <mxPoint x="110" y="360" as="targetPoint"/>
            <Array as="points">
              <mxPoint x="100" y="210"/>
            </Array>
          </mxGeometry>
        </mxCell>
        <mxCell id="-JAkauWewv_Lo-s79EUZ-16" value="" style="rounded=1;whiteSpace=wrap;html=1;fillColor=none;" parent="1" vertex="1">
          <mxGeometry x="40" y="130" width="260" height="250" as="geometry"/>
        </mxCell>
        <mxCell id="-JAkauWewv_Lo-s79EUZ-18" value="SegmentManager" style="rounded=0;whiteSpace=wrap;html=1;fillColor=none;" parent="1" vertex="1">
          <mxGeometry x="360" y="172" width="120" height="40" as="geometry"/>
        </mxCell>
        <mxCell id="-JAkauWewv_Lo-s79EUZ-19" value="ResourceManager" style="rounded=0;whiteSpace=wrap;html=1;fillColor=none;" parent="1" vertex="1">
          <mxGeometry x="360" y="235" width="120" height="40" as="geometry"/>
        </mxCell>
        <mxCell id="UlE1N67g__bPhr1tJ9Gh-12" value="" style="edgeStyle=orthogonalEdgeStyle;rounded=0;orthogonalLoop=1;jettySize=auto;html=1;endArrow=classicThin;endFill=1;" parent="1" source="-JAkauWewv_Lo-s79EUZ-20" target="UlE1N67g__bPhr1tJ9Gh-11" edge="1">
          <mxGeometry relative="1" as="geometry"/>
        </mxCell>
        <mxCell id="-JAkauWewv_Lo-s79EUZ-20" value="" style="rounded=0;whiteSpace=wrap;html=1;fillColor=none;" parent="1" vertex="1">
          <mxGeometry x="35" y="410" width="280" height="80" as="geometry"/>
        </mxCell>
        <mxCell id="UlE1N67g__bPhr1tJ9Gh-11" value="" style="rounded=0;whiteSpace=wrap;html=1;fillColor=none;" parent="1" vertex="1">
          <mxGeometry x="30" y="530" width="290" height="80" as="geometry"/>
        </mxCell>
        <mxCell id="-JAkauWewv_Lo-s79EUZ-21" value="loging" style="rounded=0;whiteSpace=wrap;html=1;fillColor=none;" parent="1" vertex="1">
          <mxGeometry x="360" y="297" width="120" height="40" as="geometry"/>
        </mxCell>
        <mxCell id="-JAkauWewv_Lo-s79EUZ-22" value="" style="endArrow=classic;html=1;exitX=0;exitY=0.5;exitDx=0;exitDy=0;entryX=1;entryY=0.5;entryDx=0;entryDy=0;" parent="1" source="-JAkauWewv_Lo-s79EUZ-19" target="-JAkauWewv_Lo-s79EUZ-16" edge="1">
          <mxGeometry width="50" height="50" relative="1" as="geometry">
            <mxPoint x="40" y="530" as="sourcePoint"/>
            <mxPoint x="90" y="480" as="targetPoint"/>
          </mxGeometry>
        </mxCell>
        <mxCell id="-JAkauWewv_Lo-s79EUZ-23" value="" style="endArrow=classic;html=1;exitX=0;exitY=0.5;exitDx=0;exitDy=0;entryX=1;entryY=0.25;entryDx=0;entryDy=0;" parent="1" source="-JAkauWewv_Lo-s79EUZ-18" target="-JAkauWewv_Lo-s79EUZ-16" edge="1">
          <mxGeometry width="50" height="50" relative="1" as="geometry">
            <mxPoint x="340" y="385" as="sourcePoint"/>
            <mxPoint x="500" y="115" as="targetPoint"/>
          </mxGeometry>
        </mxCell>
        <mxCell id="-JAkauWewv_Lo-s79EUZ-24" value="" style="endArrow=classic;html=1;exitX=0;exitY=0.5;exitDx=0;exitDy=0;entryX=1;entryY=0.75;entryDx=0;entryDy=0;" parent="1" source="-JAkauWewv_Lo-s79EUZ-21" target="-JAkauWewv_Lo-s79EUZ-16" edge="1">
          <mxGeometry width="50" height="50" relative="1" as="geometry">
            <mxPoint x="190" y="530" as="sourcePoint"/>
            <mxPoint x="240" y="480" as="targetPoint"/>
          </mxGeometry>
        </mxCell>
        <mxCell id="UlE1N67g__bPhr1tJ9Gh-5" value="Linker" style="text;html=1;resizable=0;points=[];align=center;verticalAlign=middle;labelBackgroundColor=#ffffff;" parent="-JAkauWewv_Lo-s79EUZ-24" vertex="1" connectable="0">
          <mxGeometry x="-0.298" y="-1" relative="1" as="geometry">
            <mxPoint x="-278.5" y="104" as="offset"/>
          </mxGeometry>
        </mxCell>
        <mxCell id="UlE1N67g__bPhr1tJ9Gh-16" value="持久化管理器" style="text;html=1;resizable=0;points=[];align=center;verticalAlign=middle;labelBackgroundColor=#ffffff;direction=south;" parent="-JAkauWewv_Lo-s79EUZ-24" vertex="1" connectable="0">
          <mxGeometry x="-0.4167" relative="1" as="geometry">
            <mxPoint x="-262.5" y="223" as="offset"/>
          </mxGeometry>
        </mxCell>
        <mxCell id="-JAkauWewv_Lo-s79EUZ-25" value="" style="endArrow=classic;html=1;exitX=0.5;exitY=1;exitDx=0;exitDy=0;entryX=0.5;entryY=0;entryDx=0;entryDy=0;" parent="1" source="-JAkauWewv_Lo-s79EUZ-18" target="-JAkauWewv_Lo-s79EUZ-19" edge="1">
          <mxGeometry width="50" height="50" relative="1" as="geometry">
            <mxPoint x="370" y="265" as="sourcePoint"/>
            <mxPoint x="270" y="265" as="targetPoint"/>
          </mxGeometry>
        </mxCell>
        <mxCell id="UlE1N67g__bPhr1tJ9Gh-1" value="全局变量" style="rounded=0;whiteSpace=wrap;html=1;fillColor=none;" parent="1" vertex="1">
          <mxGeometry x="60" y="450" width="70" height="30" as="geometry"/>
        </mxCell>
        <mxCell id="UlE1N67g__bPhr1tJ9Gh-2" value="功能块" style="rounded=0;whiteSpace=wrap;html=1;fillColor=none;" parent="1" vertex="1">
          <mxGeometry x="140" y="450" width="70" height="30" as="geometry"/>
        </mxCell>
        <mxCell id="UlE1N67g__bPhr1tJ9Gh-4" value="函数" style="rounded=0;whiteSpace=wrap;html=1;fillColor=none;" parent="1" vertex="1">
          <mxGeometry x="225" y="450" width="70" height="30" as="geometry"/>
        </mxCell>
        <mxCell id="UlE1N67g__bPhr1tJ9Gh-6" value="" style="endArrow=classic;html=1;exitX=0.484;exitY=1.001;exitDx=0;exitDy=0;entryX=0.467;entryY=-0.037;entryDx=0;entryDy=0;entryPerimeter=0;exitPerimeter=0;" parent="1" source="-JAkauWewv_Lo-s79EUZ-16" target="-JAkauWewv_Lo-s79EUZ-20" edge="1">
          <mxGeometry width="50" height="50" relative="1" as="geometry">
            <mxPoint x="430" y="222" as="sourcePoint"/>
            <mxPoint x="430" y="245" as="targetPoint"/>
          </mxGeometry>
        </mxCell>
        <mxCell id="UlE1N67g__bPhr1tJ9Gh-13" value="目标代码文件" style="rounded=0;whiteSpace=wrap;html=1;fillColor=none;" parent="1" vertex="1">
          <mxGeometry x="40" y="570" width="90" height="30" as="geometry"/>
        </mxCell>
        <mxCell id="UlE1N67g__bPhr1tJ9Gh-17" value="变量表文件" style="rounded=0;whiteSpace=wrap;html=1;fillColor=none;" parent="1" vertex="1">
          <mxGeometry x="140" y="570" width="80" height="30" as="geometry"/>
        </mxCell>
        <mxCell id="UlE1N67g__bPhr1tJ9Gh-18" value="log日志文件" style="rounded=0;whiteSpace=wrap;html=1;fillColor=none;" parent="1" vertex="1">
          <mxGeometry x="225" y="570" width="90" height="30" as="geometry"/>
        </mxCell>
      </root>
    </mxGraphModel>
  </diagram>
  <diagram id="HLX9u4k7PtRqzXl-xAgX" name="Page-2">
    <mxGraphModel dx="840" dy="644" grid="1" gridSize="10" guides="1" tooltips="1" connect="1" arrows="1" fold="1" page="1" pageScale="1" pageWidth="827" pageHeight="1169" math="0" shadow="0">
      <root>
        <mxCell id="NUGxcYxFhLIGw805Rsja-0"/>
        <mxCell id="NUGxcYxFhLIGw805Rsja-1" parent="NUGxcYxFhLIGw805Rsja-0"/>
      </root>
    </mxGraphModel>
  </diagram>
</mxfile>
